<svg xmlns="http://www.w3.org/2000/svg" viewBox="0 0 500 500">
    <g id="freepik--background-simple--inject-18">
        <path d="M468.08,203.45A800.68,800.68,0,0,0,429.26,133c-21.4-34.7-49.42-67.22-86.09-87.73-85.07-47.59-183-29-247.66,25.86S83.67,196.28,71.82,249,22.29,299.73,12.6,376.28,112.74,498.35,197.8,478.7,284,423.87,356.09,421.8,471.31,398,486.38,317.32c5.3-28.36,5.86-59.17-5.71-86.26C476.75,221.88,472.53,212.65,468.08,203.45Z"
              style="fill:#14A800"></path>
        <path d="M468.08,203.45A800.68,800.68,0,0,0,429.26,133c-21.4-34.7-49.42-67.22-86.09-87.73-85.07-47.59-183-29-247.66,25.86S83.67,196.28,71.82,249,22.29,299.73,12.6,376.28,112.74,498.35,197.8,478.7,284,423.87,356.09,421.8,471.31,398,486.38,317.32c5.3-28.36,5.86-59.17-5.71-86.26C476.75,221.88,472.53,212.65,468.08,203.45Z"
              style="fill:#fff;opacity:0.7000000000000001"></path>
    </g>
    <g id="freepik--Plants--inject-18">
        <path d="M45.3,368.11c2.53,1.1,8.7,1,8.7,1s-1.32-4-1.44-4.28c-1.36-2.84-5.64-7.51-9.12-7A4.16,4.16,0,0,0,40.1,363C40.68,365.38,43.16,367.17,45.3,368.11Z"
              style="fill:#14A800"></path>
        <path d="M47.43,386c2.62.38,8.13-1.22,8.56-1.35a74.32,74.32,0,0,0,3.34,9.24c.76,1.76,1.58,3.5,2.42,5.24-.5-.74-1-1.39-1-1.48-2-2.37-7.42-5.75-10.65-4.38a4.16,4.16,0,0,0-1.85,5.91c1.2,2.18,4.06,3.25,6.38,3.59s7.08-.92,8.32-1.28c.33.67.65,1.33,1,2,1.59,3.18,3.19,6.34,4.67,9.49.53,1.11,1,2.22,1.48,3.33-.45-.65-.83-1.2-.9-1.28-2-2.37-7.42-5.75-10.65-4.37a4.16,4.16,0,0,0-1.85,5.91c1.2,2.17,4.06,3.25,6.38,3.58s6.62-.8,8.1-1.21c.45,1.15.91,2.3,1.3,3.44.25.78.54,1.52.74,2.32l.66,2.34c.36,1.5.74,3.05,1,4.52.23,1,.43,2,.63,3-.51-1.11-1.55-3.26-1.65-3.43-1.67-2.66-6.46-6.81-9.87-5.95a4.17,4.17,0,0,0-2.72,5.57c.86,2.33,3.52,3.82,5.76,4.51,2.47.75,7.94.06,8.62,0,.33,1.64.63,3.23.89,4.73.59,3.33,1,6.31,1.36,8.83h2.31c-.4-2.61-.93-5.72-1.62-9.21-.33-1.66-.71-3.43-1.12-5.24A43.82,43.82,0,0,0,82.29,432c1.8,1.95,6.41,4.23,7,4.52-.62,1.55-1.25,3-1.86,4.44-1.28,2.93-2.49,5.54-3.56,7.75h2.5c.91-2,1.92-4.36,3-6.94.64-1.56,1.3-3.25,2-5,.66.14,6.07,1.23,8.59.67,2.28-.52,5-1.82,6.08-4.08a4.15,4.15,0,0,0-2.3-5.74c-3.33-1.12-8.42,2.66-10.28,5.19-.11.14-1.12,1.89-1.74,3,.26-.71.53-1.4.79-2.13.53-1.45,1-2.91,1.55-4.49.23-.76.46-1.54.7-2.32s.41-1.62.62-2.44c.46-1.9.82-3.85,1.15-5.82,1.27.46,5.81,2,8.15,1.87s5.28-1,6.63-3.1a4.16,4.16,0,0,0-1.4-6c-3.12-1.61-8.72,1.36-10.95,3.57-.14.14-1.55,1.91-2.31,2.89.18-1.18.38-2.37.53-3.57.43-3.49.76-7,1.1-10.56.11-1.08.22-2.16.34-3.24.45.17,5.8,2.16,8.43,2,2.34-.17,5.27-1,6.62-3.1a4.15,4.15,0,0,0-1.39-6c-3.13-1.62-8.73,1.35-11,3.57-.17.17-2.21,2.71-2.69,3.39.25-2.38.52-4.74.88-7.06a72.94,72.94,0,0,1,2-9.28c.21.08,5.78,2.18,8.48,2,2.34-.16,5.27-1,6.62-3.1a4.15,4.15,0,0,0-1.39-6c-3.13-1.61-8.73,1.36-11,3.57-.18.17-2.37,2.91-2.73,3.44,0-.18.09-.36.14-.54a54,54,0,0,1,3.68-8.78c.8-1.57,1.65-3,2.51-4.41,1,.5,5.58,2.72,8,2.82s5.35-.44,6.93-2.35a4.16,4.16,0,0,0-.73-6.15c-2.93-1.95-8.82.39-11.28,2.35-.13.1-1.37,1.34-2.25,2.25.39-.63.79-1.28,1.18-1.87,1.47-2.21,3-4.15,4.29-5.85.76-1,1.47-1.82,2.14-2.62,1.23,0,6.21-.17,8.38-1.19s4.55-2.85,5.06-5.28a4.16,4.16,0,0,0-3.48-5.12c-3.49-.38-7.64,4.41-8.92,7.28-.11.25-1.39,4.32-1.33,4.32H116c-.66.75-1.36,1.56-2.11,2.46-1.37,1.68-2.9,3.59-4.42,5.78a75.12,75.12,0,0,0-4.59,7.31,54.08,54.08,0,0,0-3.91,8.81l0,.11c0-1,0-3.91-.06-4.13-.4-3.11-3-8.89-6.47-9.53a4.16,4.16,0,0,0-4.8,3.91c-.2,2.48,1.6,4.95,3.34,6.51,2,1.77,7.45,3.47,7.88,3.61a75.49,75.49,0,0,0-2.31,9.54c-.33,1.88-.61,3.79-.87,5.7,0-.89,0-1.69,0-1.8-.41-3.11-3-8.89-6.47-9.53a4.17,4.17,0,0,0-4.8,3.92c-.2,2.47,1.59,4.95,3.34,6.51S96,401,97.27,401.41c-.09.74-.19,1.47-.28,2.21-.42,3.52-.82,7.05-1.33,10.49-.17,1.21-.39,2.4-.61,3.59,0-.79,0-1.46,0-1.56-.4-3.11-3-8.89-6.47-9.53a4.15,4.15,0,0,0-4.79,3.91c-.21,2.48,1.59,5,3.33,6.51s6,3,7.43,3.46c-.26,1.21-.51,2.42-.82,3.59-.22.78-.38,1.56-.65,2.34s-.5,1.55-.75,2.31c-.53,1.45-1.06,2.95-1.61,4.36-.38,1-.76,1.9-1.13,2.83.19-1.2.51-3.57.52-3.77a16.28,16.28,0,0,0-2.17-7.86,4.74,4.74,0,0,0-.06-.92,4.16,4.16,0,0,0-5.08-3.53c-3.4.91-5.56,6.87-5.72,10,0,.19.12,2.21.21,3.48-.17-.74-.33-1.46-.51-2.22-.36-1.5-.76-3-1.18-4.59-.23-.77-.47-1.54-.7-2.33s-.55-1.57-.82-2.37c-.68-1.84-1.45-3.67-2.26-5.49,1.31-.32,6-1.5,7.83-2.94s3.83-3.76,3.82-6.24a4.17,4.17,0,0,0-4.49-4.26c-3.5.38-6.53,5.95-7.17,9,0,.19-.24,2.45-.33,3.69-.5-1.09-1-2.19-1.54-3.28-1.56-3.14-3.24-6.28-4.9-9.41-.51-1-1-1.92-1.5-2.89.47-.1,6-1.39,8.12-3,1.86-1.43,3.83-3.76,3.81-6.24a4.16,4.16,0,0,0-4.49-4.26c-3.49.38-6.53,5.95-7.16,9-.05.23-.34,3.48-.37,4.31-1.11-2.12-2.18-4.24-3.16-6.38a72.13,72.13,0,0,1-3.43-8.86c.22-.05,6-1.37,8.17-3,1.86-1.43,3.83-3.76,3.82-6.24a4.16,4.16,0,0,0-4.5-4.26c-3.49.38-6.52,5.94-7.16,9,0,.24-.36,3.73-.37,4.37-.06-.17-.13-.35-.18-.53a53.12,53.12,0,0,1-1.78-9.35c-.2-1.75-.29-3.43-.34-5.06,1.11-.14,6.16-.81,8.25-2.08s4.23-3.31,4.48-5.78a4.16,4.16,0,0,0-4-4.73c-3.51,0-7.14,5.19-8.1,8.18-.06.16-.41,1.87-.65,3.12,0-.74,0-1.5,0-2.21,0-2.66.17-5.09.34-7.24.1-1.23.22-2.33.34-3.37,1-.7,5.08-3.56,6.34-5.62s2.21-4.89,1.3-7.19A4.16,4.16,0,0,0,57,340.26c-3.13,1.62-4,7.9-3.43,11,0,.27,1.22,4.37,1.28,4.34l.06-.05c-.14,1-.27,2.06-.4,3.22-.21,2.16-.44,4.6-.5,7.26a72.73,72.73,0,0,0,.21,8.62,54.26,54.26,0,0,0,1.59,9.51s0,.08,0,.11c-.55-.86-2.18-3.24-2.33-3.41-2-2.37-7.41-5.75-10.65-4.38a4.16,4.16,0,0,0-1.84,5.91C42.25,384.56,45.11,385.64,47.43,386Z"
              style="fill:#14A800"></path>
        <path d="M107.71,369.46c.05,0,1.12-4.1,1.16-4.36.43-3.11-.56-9.37-3.73-10.9a4.14,4.14,0,0,0-5.65,2.5c-.85,2.33.22,5.2,1.5,7.16C102.48,366.17,107.7,369.46,107.71,369.46Z"
              style="fill:#14A800"></path>
        <path d="M122.28,397.57c1.6.7,5.52.61,5.52.61s-.84-2.57-.91-2.72c-.86-1.8-3.58-4.77-5.79-4.47A2.65,2.65,0,0,0,119,394.3C119.35,395.83,120.92,397,122.28,397.57Z"
              style="fill:#14A800"></path>
        <path d="M123.63,408.91c1.66.24,5.16-.77,5.44-.85a45.93,45.93,0,0,0,2.12,5.86c.48,1.11,1,2.22,1.53,3.32-.32-.47-.61-.88-.65-.93-1.31-1.51-4.71-3.66-6.76-2.78a2.63,2.63,0,0,0-1.17,3.75c.75,1.38,2.57,2.06,4,2.27s4.49-.58,5.28-.81l.63,1.27c1,2,2,4,3,6,.33.7.63,1.41.93,2.11-.28-.41-.52-.76-.57-.81-1.3-1.5-4.7-3.65-6.76-2.78a2.64,2.64,0,0,0-1.17,3.75c.76,1.38,2.58,2.07,4,2.28a16.8,16.8,0,0,0,5.14-.77c.29.73.58,1.46.82,2.18.16.5.35,1,.48,1.48s.27,1,.41,1.48c.23.95.47,1.94.67,2.87.15.65.27,1.27.4,1.9-.32-.71-1-2.07-1.05-2.18-1.06-1.69-4.1-4.32-6.26-3.77a2.64,2.64,0,0,0-1.73,3.53c.55,1.48,2.24,2.43,3.66,2.86s5,0,5.47,0c.21,1,.4,2.05.56,3,.38,2.11.66,4,.87,5.6h1.46c-.25-1.66-.59-3.63-1-5.85-.2-1-.45-2.17-.71-3.32a27.08,27.08,0,0,0,3.06-1.43A19.25,19.25,0,0,0,150.2,441c-.4,1-.79,1.93-1.18,2.82-.81,1.86-1.58,3.51-2.26,4.92h1.58c.59-1.3,1.23-2.77,1.9-4.41.4-1,.82-2.06,1.24-3.16.42.09,3.85.79,5.45.43,1.45-.33,3.21-1.15,3.86-2.59a2.64,2.64,0,0,0-1.46-3.65c-2.11-.71-5.34,1.69-6.52,3.3-.07.09-.71,1.2-1.11,1.91l.51-1.35c.34-.92.64-1.85,1-2.85.15-.49.29-1,.44-1.47s.27-1,.4-1.55c.29-1.21.52-2.45.73-3.7a16.92,16.92,0,0,0,5.17,1.19c1.49-.1,3.35-.65,4.21-2a2.63,2.63,0,0,0-.89-3.82c-2-1-5.54.86-6.95,2.26-.09.09-1,1.21-1.47,1.84.12-.75.24-1.51.34-2.27.27-2.21.48-4.46.7-6.7l.21-2.06c.29.11,3.68,1.37,5.35,1.26,1.49-.11,3.35-.65,4.21-2a2.64,2.64,0,0,0-.89-3.83c-2-1-5.54.86-6.95,2.27-.1.1-1.4,1.72-1.71,2.15.16-1.51.34-3,.57-4.48a45.51,45.51,0,0,1,1.28-5.89c.14.05,3.67,1.38,5.38,1.26,1.49-.1,3.35-.65,4.21-2a2.63,2.63,0,0,0-.89-3.82c-2-1-5.53.86-6.95,2.26-.11.11-1.5,1.85-1.73,2.19,0-.11.06-.23.09-.34a33.49,33.49,0,0,1,2.34-5.58c.5-1,1-1.91,1.59-2.8.63.32,3.54,1.73,5.1,1.79s3.39-.27,4.39-1.49a2.64,2.64,0,0,0-.46-3.9c-1.86-1.24-5.6.25-7.16,1.49-.08.07-.87.85-1.43,1.43.25-.4.51-.81.76-1.19.93-1.4,1.87-2.63,2.71-3.71.49-.61.94-1.16,1.36-1.66.79,0,3.94-.11,5.32-.76s2.89-1.81,3.22-3.35a2.64,2.64,0,0,0-2.21-3.25c-2.22-.24-4.86,2.8-5.67,4.62-.07.16-.88,2.74-.84,2.74h.05c-.42.48-.87,1-1.34,1.57-.87,1.06-1.84,2.27-2.8,3.66a45.27,45.27,0,0,0-2.91,4.64,34.38,34.38,0,0,0-2.49,5.59.64.64,0,0,1,0,.07c0-.65,0-2.48,0-2.62-.25-2-1.91-5.64-4.1-6.05a2.65,2.65,0,0,0-3,2.49c-.12,1.57,1,3.14,2.12,4.13s4.73,2.2,5,2.28a47,47,0,0,0-1.47,6.06c-.22,1.2-.39,2.41-.55,3.62,0-.56,0-1.07,0-1.14-.26-2-1.92-5.64-4.11-6a2.64,2.64,0,0,0-3,2.49c-.13,1.56,1,3.14,2.11,4.13a17.33,17.33,0,0,0,4.86,2.23l-.18,1.4c-.27,2.24-.52,4.48-.84,6.66-.12.77-.26,1.53-.39,2.28,0-.5,0-.92,0-1-.25-2-1.91-5.64-4.1-6.05a2.65,2.65,0,0,0-3,2.49c-.13,1.57,1,3.14,2.12,4.13a16.72,16.72,0,0,0,4.71,2.19c-.16.77-.32,1.54-.52,2.28-.14.5-.24,1-.41,1.49L152.1,436c-.33.92-.67,1.88-1,2.77-.24.62-.48,1.21-.72,1.8.12-.77.33-2.27.33-2.4a10.28,10.28,0,0,0-1.37-5,3.9,3.9,0,0,0,0-.59,2.64,2.64,0,0,0-3.23-2.24c-2.15.58-3.52,4.36-3.62,6.35,0,.12.07,1.4.13,2.21-.11-.47-.21-.93-.33-1.41-.22-1-.48-1.9-.74-2.92l-.45-1.47c-.14-.5-.35-1-.52-1.51-.43-1.17-.92-2.33-1.44-3.49.84-.2,3.79-1,5-1.86s2.43-2.39,2.42-4a2.63,2.63,0,0,0-2.85-2.7c-2.22.24-4.15,3.77-4.55,5.72,0,.12-.15,1.56-.21,2.34-.32-.69-.63-1.38-1-2.08-1-2-2.06-4-3.12-6l-.95-1.83c.3-.07,3.83-.89,5.15-1.91s2.44-2.39,2.43-4a2.65,2.65,0,0,0-2.86-2.7c-2.21.24-4.14,3.77-4.54,5.72,0,.15-.22,2.21-.24,2.74-.7-1.35-1.38-2.7-2-4a46.44,46.44,0,0,1-2.18-5.62c.14,0,3.83-.87,5.19-1.92,1.18-.9,2.43-2.38,2.42-4a2.63,2.63,0,0,0-2.85-2.7c-2.22.24-4.15,3.77-4.55,5.72,0,.16-.23,2.37-.24,2.78,0-.11-.08-.22-.11-.34a33.56,33.56,0,0,1-1.13-5.93c-.12-1.11-.18-2.18-.21-3.22.7-.08,3.91-.51,5.24-1.31s2.68-2.11,2.84-3.68a2.65,2.65,0,0,0-2.54-3c-2.23,0-4.53,3.3-5.15,5.2,0,.1-.25,1.18-.41,2,0-.47,0-1,0-1.4,0-1.69.11-3.24.22-4.6.06-.78.14-1.48.22-2.14.64-.44,3.22-2.26,4-3.56s1.4-3.11.83-4.57a2.65,2.65,0,0,0-3.64-1.5c-2,1-2.5,5-2.17,7,0,.17.77,2.78.81,2.75l0,0c-.09.63-.18,1.3-.26,2-.13,1.37-.27,2.92-.31,4.61a44.54,44.54,0,0,0,.13,5.47,34.31,34.31,0,0,0,1,6,.14.14,0,0,1,0,.07c-.35-.55-1.38-2.06-1.47-2.17-1.31-1.51-4.71-3.65-6.76-2.78a2.63,2.63,0,0,0-1.17,3.75C120.35,408,122.16,408.69,123.63,408.91Z"
              style="fill:#14A800"></path>
        <path d="M161.89,398.43s.71-2.61.74-2.78c.27-2-.36-5.94-2.37-6.91a2.64,2.64,0,0,0-3.59,1.59c-.54,1.48.14,3.29,1,4.54C158.57,396.34,161.89,398.43,161.89,398.43Z"
              style="fill:#14A800"></path>
    </g>
    <g id="freepik--Clouds--inject-18">
        <path d="M268,71.76c-1.41-1.46-3.86-2.81-8.11-2.91-9.55-.24-7,6.52-9.55,8.15s-3.27-.93-5.83.7-1.4,4.89-3.49,5.36-4.9-2.1-7.46-.47-2.56,3-3.73,3-3.49-.93-4.89,0-3,2.1-3,2.1h25"
              style="fill:none;stroke:#263238;stroke-linecap:round;stroke-linejoin:round"></path>
        <path d="M270.58,75.93l-.72-.33a6.23,6.23,0,0,0-.86-2.45"
              style="fill:none;stroke:#263238;stroke-linecap:round;stroke-linejoin:round"></path>
        <path d="M250.08,87.72h30.73s.7-2.1-1.87-3.5-3.72-.23-4.66-1.39,1.85-3.56-2.48-6.23"
              style="fill:none;stroke:#263238;stroke-linecap:round;stroke-linejoin:round"></path>
        <path d="M147.55,135.48c-1.41-1.47-3.86-2.81-8.11-2.92-9.55-.23-7,6.53-9.55,8.16s-3.26-.94-5.83.7-1.39,4.89-3.49,5.35-4.89-2.09-7.46-.46-2.56,3-3.72,3-3.5-.94-4.9,0-3,2.09-3,2.09h25"
              style="fill:none;stroke:#263238;stroke-linecap:round;stroke-linejoin:round"></path>
        <path d="M150.18,139.65l-.72-.33a6.25,6.25,0,0,0-.86-2.46"
              style="fill:none;stroke:#263238;stroke-linecap:round;stroke-linejoin:round"></path>
        <path d="M129.69,151.43h30.72s.7-2.09-1.86-3.49-3.73-.23-4.66-1.4,1.85-3.55-2.49-6.23"
              style="fill:none;stroke:#263238;stroke-linecap:round;stroke-linejoin:round"></path>
        <path d="M400.43,87.72h60.92s2.08-6.23-5.53-10.38-11.07-.69-13.84-4.15,7.61-12.46-13.15-21.45c0,0-1.38-19.38-29.75-20.07-12.25-.3-17.79,3.27-20.74,7.81"
              style="fill:none;stroke:#263238;stroke-linecap:round;stroke-linejoin:round"></path>
        <line x1="381.84" y1="87.72" x2="391.98" y2="87.72"
              style="fill:none;stroke:#263238;stroke-linecap:round;stroke-linejoin:round"></line>
        <path d="M374.64,49c-.87,3-1.8,5.49-3.93,6.85-7.61,4.84-9.69-2.77-17.3,2.07S349.26,72.49,343,73.88s-14.53-6.23-22.14-1.39-7.62,9-11.08,9-10.38-2.77-14.53,0-9,6.23-9,6.23H364.1"
              style="fill:none;stroke:#263238;stroke-linecap:round;stroke-linejoin:round"></path>
    </g>
</svg>